<svg width="55" height="54" viewBox="0 0 55 54" fill="none" xmlns="http://www.w3.org/2000/svg">
<g id="642efa7f536fd5086474494f_ethereum.svg" clip-path="url(#clip0_528_176)">
<path id="Vector" d="M27.3133 53.9388C42.1911 53.9388 54.2521 41.8779 54.2521 27.0001C54.2521 12.1222 42.1911 0.0612793 27.3133 0.0612793C12.4355 0.0612793 0.374512 12.1222 0.374512 27.0001C0.374512 41.8779 12.4355 53.9388 27.3133 53.9388Z" fill="#627EEA"/>
<path id="Vector_2" d="M28.1514 6.7959V21.7301L40.7739 27.3704L28.1514 6.7959Z" fill="white" fill-opacity="0.602"/>
<path id="Vector_3" d="M28.1515 6.7959L15.5273 27.3704L28.1515 21.7301V6.7959Z" fill="white"/>
<path id="Vector_4" d="M28.1514 37.0483V47.1958L40.7823 29.7209L28.1514 37.0483Z" fill="white" fill-opacity="0.602"/>
<path id="Vector_5" d="M28.1515 47.1958V37.0466L15.5273 29.7209L28.1515 47.1958Z" fill="white"/>
<path id="Vector_6" d="M28.1514 34.6999L40.7739 27.3708L28.1514 21.7339V34.6999Z" fill="white" fill-opacity="0.2"/>
<path id="Vector_7" d="M15.5273 27.3708L28.1515 34.6999V21.7339L15.5273 27.3708Z" fill="white" fill-opacity="0.602"/>
</g>
<defs>
<clipPath id="clip0_528_176">
<rect width="55" height="53.8776" fill="white" transform="translate(0 0.0612793)"/>
</clipPath>
</defs>
</svg>
