<svg width="138" height="31" viewBox="0 0 138 31" fill="none" xmlns="http://www.w3.org/2000/svg">
<g id="NF_Green 1" clip-path="url(#clip0_506_5)">
<g id="b">
<g id="c">
<g id="Group">
<g id="Group_2">
<path id="Vector" d="M48.6673 0.5979H53.7045V23.4573H48.6673V21.8947C47.6017 23.2258 46.1486 23.9009 44.3275 23.9009C43.3007 23.9009 42.3514 23.708 41.4795 23.3222C40.6077 22.9364 39.8521 22.3963 39.2128 21.7211C38.5735 21.0459 38.0697 20.2357 37.7016 19.3291C37.3335 18.4031 37.1592 17.4193 37.1592 16.3583C37.1592 15.3552 37.3335 14.3907 37.6629 13.484C38.0116 12.5774 38.496 11.7865 39.1159 11.1113C39.7359 10.4361 40.4915 9.89597 41.3633 9.51016C42.2351 9.12435 43.2038 8.91215 44.25 8.91215C46.013 8.91215 47.4854 9.52945 48.6479 10.764V0.5979H48.6673ZM42.3707 16.339C42.3707 16.802 42.4482 17.2264 42.6226 17.6122C42.797 17.998 43.0101 18.3453 43.3007 18.6539C43.5913 18.9433 43.9207 19.1747 44.3275 19.3484C44.715 19.522 45.1606 19.5991 45.6062 19.5991C46.0518 19.5991 46.4586 19.522 46.8655 19.3484C47.253 19.1747 47.6017 18.9626 47.8923 18.6539C48.1829 18.3645 48.4154 18.0173 48.5898 17.6315C48.7641 17.2457 48.861 16.8406 48.861 16.3969C48.861 15.9532 48.7641 15.5481 48.5898 15.143C48.4154 14.7572 48.1829 14.41 47.8923 14.1013C47.6017 13.812 47.2723 13.5805 46.8655 13.4069C46.478 13.2332 46.0518 13.1561 45.6062 13.1561C45.1606 13.1561 44.7537 13.2332 44.3469 13.4069C43.9594 13.5805 43.6107 13.7927 43.3201 14.1013C43.0295 14.3907 42.797 14.7379 42.6226 15.1044C42.4482 15.4902 42.3514 15.8953 42.3514 16.339H42.3707Z" fill="#99DFAF"/>
<path id="Vector_2" d="M75.4028 9.33665V6.71313C75.4028 5.76789 75.5966 4.89981 76.0034 4.08961C76.3909 3.2794 76.9334 2.56565 77.6115 1.94835C78.2895 1.35034 79.0645 0.868077 79.9557 0.520846C80.8469 0.173615 81.7962 0 82.7843 0C83.7723 0 84.7217 0.173615 85.6129 0.520846C86.5041 0.868077 87.2984 1.35034 87.9571 1.94835C88.6352 2.54636 89.1583 3.26011 89.5651 4.08961C89.9526 4.89981 90.1657 5.78718 90.1657 6.71313V23.4574H85.1673V6.71313C85.1673 6.38519 85.1091 6.05725 84.9929 5.76789C84.8767 5.45924 84.7023 5.18917 84.4892 4.95769C84.2761 4.7262 84.0242 4.53329 83.7336 4.37897C83.443 4.22464 83.133 4.16677 82.7843 4.16677C82.4355 4.16677 82.1062 4.24393 81.8156 4.37897C81.525 4.53329 81.2731 4.70691 81.06 4.9384C80.8663 5.16988 80.6919 5.43995 80.5757 5.7486C80.4594 6.05725 80.4013 6.38519 80.4013 6.71313V9.33665H83.2686V13.4841H80.4013V23.4574H75.4028V13.4841H73.6011V9.33665H75.4028Z" fill="#99DFAF"/>
<path id="Vector_3" d="M135.152 13.4842V23.4574H130.153V13.4842H128.487V9.33671H130.153V5.09277H135.152V9.33671H138V13.4842H135.152Z" fill="#99DFAF"/>
<path id="Vector_4" d="M102.352 19.8692C101.887 20.0428 101.403 20.12 100.899 20.12C100.202 20.12 99.5817 19.9657 99.0004 19.657C98.6323 19.4641 98.3224 19.2133 98.0705 18.9047L108.494 15.606C108.106 13.3876 107.254 11.6707 105.936 10.494C104.619 9.31725 102.953 8.71924 100.899 8.71924C99.3879 8.71924 97.993 9.06647 96.7531 9.74164C95.5131 10.4168 94.5251 11.3428 93.7889 12.4809C93.0527 13.6191 92.6846 14.9115 92.6846 16.339C92.6846 17.7665 92.9946 19.1555 93.6339 20.2936C94.2732 21.4317 95.1838 22.3384 96.385 22.9943C97.5862 23.6502 99.0586 23.9588 100.802 23.9588C101.577 23.9588 102.41 23.8238 103.301 23.573C104.173 23.3222 105.006 22.975 105.762 22.5313L103.747 19.1555C103.282 19.4448 102.836 19.657 102.371 19.8306L102.352 19.8692ZM97.5862 14.082C97.8574 13.5033 98.2449 13.0596 98.768 12.751C99.2717 12.4423 99.8723 12.288 100.55 12.288C101.442 12.288 102.1 12.5002 102.546 12.9246C102.972 13.3297 103.263 13.7927 103.437 14.3135L97.1987 16.4162C97.1987 16.4162 97.1987 16.2233 97.1987 16.1268C97.1987 15.3552 97.3343 14.68 97.6055 14.1013L97.5862 14.082Z" fill="#99DFAF"/>
<path id="Vector_5" d="M66.1036 19.8692C65.6386 20.0428 65.1543 20.12 64.6506 20.12C63.9531 20.12 63.3331 19.9657 62.7519 19.657C62.3838 19.4641 62.0738 19.2133 61.822 18.9047L72.2451 15.606C71.8576 13.3876 71.0052 11.6707 69.6878 10.494C68.3703 9.31725 66.7042 8.71924 64.6506 8.71924C63.1394 8.71924 61.7445 9.06647 60.5045 9.74164C59.2646 10.4168 58.2766 11.3428 57.5403 12.4809C56.8041 13.6191 56.436 14.9115 56.436 16.339C56.436 17.7665 56.746 19.1555 57.3854 20.2936C58.0247 21.4317 58.9353 22.3384 60.1364 22.9943C61.3376 23.6502 62.81 23.9588 64.5537 23.9588C65.3286 23.9588 66.1617 23.8238 67.0529 23.573C67.9247 23.3222 68.7578 22.975 69.5134 22.5313L67.4985 19.1555C67.0335 19.4448 66.5879 19.657 66.123 19.8306L66.1036 19.8692ZM61.3376 14.082C61.6089 13.5033 61.9963 13.0596 62.5194 12.751C63.0231 12.4423 63.6237 12.288 64.3018 12.288C65.193 12.288 65.8517 12.5002 66.2973 12.9246C66.7236 13.3297 67.0142 13.7927 67.1885 14.3135L60.9501 16.4162C60.9501 16.4162 60.9501 16.2233 60.9501 16.1268C60.9501 15.3552 61.0858 14.68 61.357 14.1013L61.3376 14.082Z" fill="#99DFAF"/>
<path id="Vector_6" d="M120.37 19.8692C119.905 20.0428 119.42 20.12 118.917 20.12C118.219 20.12 117.599 19.9657 117.018 19.657C116.65 19.4641 116.34 19.2133 116.088 18.9047L126.511 15.606C126.124 13.3876 125.271 11.6707 123.954 10.494C122.636 9.31725 120.97 8.71924 118.917 8.71924C117.406 8.71924 116.011 9.06647 114.771 9.74164C113.531 10.4168 112.543 11.3428 111.806 12.4809C111.07 13.6191 110.702 14.9115 110.702 16.339C110.702 17.7665 111.012 19.1555 111.651 20.2936C112.291 21.4317 113.201 22.3384 114.403 22.9943C115.604 23.6502 117.076 23.9588 118.82 23.9588C119.595 23.9588 120.428 23.8238 121.319 23.573C122.191 23.3222 123.024 22.975 123.779 22.5313L121.765 19.1555C121.3 19.4448 120.854 19.657 120.389 19.8306L120.37 19.8692ZM115.604 14.082C115.875 13.5033 116.262 13.0596 116.786 12.751C117.289 12.4423 117.89 12.288 118.568 12.288C119.459 12.288 120.118 12.5002 120.563 12.9246C120.99 13.3297 121.28 13.7927 121.455 14.3135L115.216 16.4162C115.216 16.4162 115.216 16.2233 115.216 16.1268C115.216 15.3552 115.352 14.68 115.623 14.1013L115.604 14.082Z" fill="#99DFAF"/>
<path id="Vector_7" d="M18.25 16.3197C18.25 14.8729 18.5987 13.5805 19.2768 12.423C19.9549 11.2849 20.9236 10.3782 22.1635 9.72235C23.4034 9.06647 24.8177 8.73853 26.4258 8.73853C28.0338 8.73853 29.4675 9.06647 30.6686 9.72235C31.8698 10.3782 32.7804 11.2849 33.4197 12.423C34.0591 13.5612 34.3884 14.8729 34.3884 16.3197C34.3884 17.7665 34.0591 19.0783 33.4197 20.2357C32.7804 21.3932 31.8698 22.2998 30.6686 22.975C29.4675 23.6502 28.0338 23.9781 26.3676 23.9781C24.7984 23.9781 23.4034 23.6695 22.1829 23.0714C20.9623 22.4734 19.9936 21.5861 19.2962 20.4479C18.5987 19.3098 18.25 17.9209 18.25 16.3197ZM22.8416 16.3583C22.8416 17.0914 22.9966 17.7665 23.3066 18.3452C23.6166 18.9433 24.0234 19.4062 24.5465 19.7535C25.0696 20.1007 25.6508 20.2743 26.3095 20.2743C27.0264 20.2743 27.6463 20.1007 28.1694 19.7535C28.6925 19.4062 29.0994 18.9433 29.3706 18.3452C29.6612 17.7472 29.7968 17.0914 29.7968 16.3583C29.7968 15.6253 29.6612 14.9308 29.3706 14.3521C29.08 13.7734 28.6925 13.3104 28.1694 12.9632C27.6463 12.6159 27.0264 12.4423 26.3095 12.4423C25.6508 12.4423 25.0696 12.6159 24.5465 12.9632C24.0234 13.3104 23.6166 13.7734 23.3066 14.3521C22.9966 14.9308 22.8416 15.606 22.8416 16.3583Z" fill="#99DFAF"/>
<g id="Group_3">
<path id="Vector_8" d="M4.99846 9.02808H0V23.4574H4.99846V15.9148V13.7543V13.0019V9.02808Z" fill="#99DFAF"/>
<path id="Vector_9" d="M14.7434 12.4618C14.5884 11.8831 14.3172 11.343 13.9103 10.8607C13.4066 10.282 12.806 9.81899 12.1085 9.49105C11.3917 9.16311 10.5393 9.00879 9.55119 9.00879H7.49756V12.9827H7.65255C7.96253 12.9827 8.25314 13.0212 8.54375 13.1177C8.81498 13.2141 9.06684 13.3685 9.29933 13.5807C9.55119 13.8314 9.74493 14.1787 9.8418 14.6224C9.93866 15.0467 9.99679 15.6255 9.99679 16.3199V23.4575H14.9952V14.4873C14.9952 13.735 14.9177 13.0598 14.7821 12.4811L14.7434 12.4618Z" fill="#99DFAF"/>
</g>
</g>
<g id="Group_4">
<path id="Vector_10" d="M97.1212 30.4792L133.641 30.4792C134.657 30.4792 135.481 29.6588 135.481 28.6466C135.481 27.6345 134.657 26.814 133.641 26.814L97.1212 26.814C96.1047 26.814 95.2807 27.6345 95.2807 28.6466C95.2807 29.6588 96.1047 30.4792 97.1212 30.4792Z" fill="#99DFAF"/>
<path id="Vector_11" d="M87.5503 30.4792H91.9676C92.9841 30.4792 93.8081 29.6588 93.8081 28.6466C93.8081 27.6345 92.9841 26.814 91.9676 26.814H87.5503C86.5339 26.814 85.7098 27.6345 85.7098 28.6466C85.7098 29.6588 86.5339 30.4792 87.5503 30.4792Z" fill="#99DFAF"/>
<path id="Vector_12" d="M76.1392 28.8395L79.7427 30.9036C80.1302 31.1351 80.6339 30.8457 80.6339 30.402V26.9104C80.6339 26.4474 80.1496 26.1774 79.7427 26.4089L76.1392 28.473C75.9842 28.5501 75.9842 28.7623 76.1392 28.8588V28.8395Z" fill="#99DFAF"/>
<path id="Vector_13" d="M83.5459 27.887L84.2035 28.5417C84.2035 28.5417 84.272 28.6918 84.2035 28.76L83.5459 29.4147C83.1212 29.8376 82.45 29.8239 82.039 29.4147C81.6143 28.9919 81.628 28.3235 82.039 27.9143C82.4637 27.4914 83.1349 27.505 83.5459 27.9143L83.5459 27.887Z" fill="#99DFAF"/>
</g>
</g>
</g>
</g>
</g>
<defs>
<clipPath id="clip0_506_5">
<rect width="138" height="31" fill="white"/>
</clipPath>
</defs>
</svg>
