<svg width="140" height="32" viewBox="0 0 140 32" fill="none" xmlns="http://www.w3.org/2000/svg">
<g id="NF_White 2">
<g id="Group">
<g id="Group_2">
<path id="Vector" d="M49.1584 0.85791H54.2465V24.097H49.1584V22.5085C48.0821 23.8617 46.6144 24.548 44.7749 24.548C43.7377 24.548 42.7788 24.3519 41.8982 23.9597C41.0175 23.5675 40.2543 23.0184 39.6085 22.332C38.9627 21.6456 38.4539 20.8219 38.0821 19.9002C37.7103 18.9589 37.5342 17.9587 37.5342 16.8801C37.5342 15.8604 37.7103 14.8798 38.043 13.9581C38.3952 13.0364 38.8845 12.2323 39.5107 11.5459C40.1369 10.8595 40.9001 10.3104 41.7807 9.91821C42.6614 9.52599 43.6398 9.31027 44.6966 9.31027C46.4774 9.31027 47.9647 9.93782 49.1388 11.1929V0.85791H49.1584ZM42.7984 16.8605C42.7984 17.3312 42.8766 17.7626 43.0528 18.1548C43.2289 18.5471 43.4441 18.9001 43.7377 19.2138C44.0312 19.508 44.3639 19.7433 44.7749 19.9198C45.1663 20.0963 45.6164 20.1748 46.0665 20.1748C46.5165 20.1748 46.9275 20.0963 47.3385 19.9198C47.7298 19.7433 48.0821 19.5276 48.3756 19.2138C48.6692 18.9197 48.904 18.5667 49.0801 18.1745C49.2563 17.7822 49.3541 17.3704 49.3541 16.9194C49.3541 16.4683 49.2563 16.0565 49.0801 15.6446C48.904 15.2524 48.6692 14.8994 48.3756 14.5856C48.0821 14.2915 47.7494 14.0561 47.3385 13.8796C46.9471 13.7031 46.5165 13.6247 46.0665 13.6247C45.6164 13.6247 45.2054 13.7031 44.7944 13.8796C44.403 14.0561 44.0508 14.2719 43.7573 14.5856C43.4637 14.8798 43.2289 15.2328 43.0528 15.6054C42.8766 15.9976 42.7788 16.4095 42.7788 16.8605H42.7984Z" fill="white"/>
<path id="Vector_2" d="M76.1642 9.74174V7.07464C76.1642 6.1137 76.3599 5.2312 76.7708 4.40754C77.1622 3.58388 77.7102 2.85827 78.3951 2.23072C79.08 1.62277 79.8628 1.1325 80.763 0.779498C81.6632 0.426499 82.6221 0.25 83.6201 0.25C84.6182 0.25 85.5771 0.426499 86.4773 0.779498C87.3775 1.1325 88.1798 1.62277 88.8452 2.23072C89.5301 2.83866 90.0585 3.56427 90.4694 4.40754C90.8608 5.2312 91.0761 6.13331 91.0761 7.07464V24.097H86.0272V7.07464C86.0272 6.74125 85.9685 6.40787 85.851 6.1137C85.7336 5.79992 85.5575 5.52537 85.3422 5.29004C85.127 5.05471 84.8726 4.85859 84.579 4.70171C84.2855 4.54482 83.9724 4.48599 83.6201 4.48599C83.2679 4.48599 82.9352 4.56443 82.6417 4.70171C82.3481 4.85859 82.0937 5.03509 81.8785 5.27043C81.6828 5.50576 81.5066 5.78031 81.3892 6.09409C81.2718 6.40787 81.2131 6.74125 81.2131 7.07464V9.74174H84.1094V13.9581H81.2131V24.097H76.1642V13.9581H74.3442V9.74174H76.1642Z" fill="white"/>
<path id="Vector_3" d="M136.516 13.9582V24.0971H131.467V13.9582H129.784V9.7418H131.467V5.42737H136.516V9.7418H139.393V13.9582H136.516Z" fill="white"/>
<path id="Vector_4" d="M103.385 20.4494C102.916 20.6259 102.426 20.7044 101.918 20.7044C101.213 20.7044 100.587 20.5475 99.9997 20.2337C99.6279 20.0376 99.3148 19.7827 99.0604 19.4689L109.589 16.1154C109.197 13.8601 108.336 12.1147 107.006 10.9185C105.675 9.7222 103.992 9.11426 101.918 9.11426C100.391 9.11426 98.9821 9.46726 97.7297 10.1536C96.4773 10.84 95.4792 11.7814 94.7356 12.9384C93.9919 14.0955 93.6201 15.4094 93.6201 16.8606C93.6201 18.3118 93.9332 19.7238 94.579 20.8809C95.2248 22.0379 96.1446 22.9597 97.3579 23.6264C98.5712 24.2932 100.058 24.607 101.82 24.607C102.602 24.607 103.444 24.4697 104.344 24.2148C105.225 23.9598 106.066 23.6068 106.829 23.1558L104.794 19.7238C104.325 20.018 103.874 20.2337 103.405 20.4102L103.385 20.4494ZM98.5712 14.5661C98.8452 13.9778 99.2365 13.5267 99.7649 13.213C100.274 12.8992 100.88 12.7423 101.565 12.7423C102.465 12.7423 103.131 12.958 103.581 13.3895C104.011 13.8013 104.305 14.272 104.481 14.8015L98.1798 16.9391C98.1798 16.9391 98.1798 16.743 98.1798 16.6449C98.1798 15.8605 98.3168 15.1741 98.5908 14.5857L98.5712 14.5661Z" fill="#99DFAF"/>
<path id="Vector_5" d="M66.771 20.4494C66.3013 20.6259 65.8121 20.7044 65.3033 20.7044C64.5988 20.7044 63.9726 20.5475 63.3855 20.2337C63.0137 20.0376 62.7006 19.7827 62.4462 19.4689L72.9745 16.1154C72.5831 13.8601 71.7221 12.1147 70.3914 10.9185C69.0606 9.7222 67.3777 9.11426 65.3033 9.11426C63.7769 9.11426 62.3679 9.46726 61.1154 10.1536C59.863 10.84 58.865 11.7814 58.1213 12.9384C57.3777 14.0955 57.0059 15.4094 57.0059 16.8606C57.0059 18.3118 57.319 19.7238 57.9648 20.8809C58.6106 22.0379 59.5303 22.9597 60.7436 23.6264C61.9569 24.2932 63.4442 24.607 65.2055 24.607C65.9882 24.607 66.8297 24.4697 67.7299 24.2148C68.6105 23.9598 69.452 23.6068 70.2152 23.1558L68.18 19.7238C67.7103 20.018 67.2602 20.2337 66.7906 20.4102L66.771 20.4494ZM61.9569 14.5661C62.2309 13.9778 62.6223 13.5267 63.1507 13.213C63.6595 12.8992 64.2661 12.7423 64.951 12.7423C65.8512 12.7423 66.5166 12.958 66.9667 13.3895C67.3972 13.8013 67.6908 14.272 67.8669 14.8015L61.5655 16.9391C61.5655 16.9391 61.5655 16.743 61.5655 16.6449C61.5655 15.8605 61.7025 15.1741 61.9765 14.5857L61.9569 14.5661Z" fill="white"/>
<path id="Vector_6" d="M121.585 20.4494C121.115 20.6259 120.626 20.7044 120.117 20.7044C119.413 20.7044 118.787 20.5475 118.199 20.2337C117.828 20.0376 117.515 19.7827 117.26 19.4689L127.788 16.1154C127.397 13.8601 126.536 12.1147 125.205 10.9185C123.875 9.7222 122.192 9.11426 120.117 9.11426C118.591 9.11426 117.182 9.46726 115.929 10.1536C114.677 10.84 113.679 11.7814 112.935 12.9384C112.192 14.0955 111.82 15.4094 111.82 16.8606C111.82 18.3118 112.133 19.7238 112.779 20.8809C113.425 22.0379 114.344 22.9597 115.558 23.6264C116.771 24.2932 118.258 24.607 120.019 24.607C120.802 24.607 121.644 24.4697 122.544 24.2148C123.424 23.9598 124.266 23.6068 125.029 23.1558L122.994 19.7238C122.524 20.018 122.074 20.2337 121.605 20.4102L121.585 20.4494ZM116.771 14.5661C117.045 13.9778 117.436 13.5267 117.965 13.213C118.473 12.8992 119.08 12.7423 119.765 12.7423C120.665 12.7423 121.331 12.958 121.781 13.3895C122.211 13.8013 122.505 14.272 122.681 14.8015L116.379 16.9391C116.379 16.9391 116.379 16.743 116.379 16.6449C116.379 15.8605 116.516 15.1741 116.79 14.5857L116.771 14.5661Z" fill="#99DFAF"/>
<path id="Vector_7" d="M18.4346 16.8411C18.4346 15.3702 18.7868 14.0563 19.4717 12.8796C20.1567 11.7226 21.1351 10.8008 22.3876 10.1341C23.64 9.4673 25.0686 9.13391 26.6929 9.13391C28.3171 9.13391 29.7653 9.4673 30.9786 10.1341C32.1919 10.8008 33.1116 11.7226 33.7574 12.8796C34.4032 14.0367 34.7359 15.3702 34.7359 16.8411C34.7359 18.3119 34.4032 19.6454 33.7574 20.8221C33.1116 21.9988 32.1919 22.9205 30.9786 23.6069C29.7653 24.2932 28.3171 24.6266 26.6342 24.6266C25.049 24.6266 23.64 24.3129 22.4072 23.7049C21.1743 23.097 20.1958 22.1949 19.4913 21.0378C18.7868 19.8808 18.4346 18.4688 18.4346 16.8411ZM23.0725 16.8803C23.0725 17.6255 23.2291 18.3119 23.5422 18.9002C23.8553 19.5082 24.2663 19.9788 24.7946 20.3318C25.323 20.6848 25.9101 20.8613 26.5755 20.8613C27.2995 20.8613 27.9257 20.6848 28.4541 20.3318C28.9825 19.9788 29.3934 19.5082 29.6674 18.9002C29.961 18.2923 30.0979 17.6255 30.0979 16.8803C30.0979 16.1351 29.961 15.4291 29.6674 14.8407C29.3739 14.2524 28.9825 13.7817 28.4541 13.4287C27.9257 13.0757 27.2995 12.8992 26.5755 12.8992C25.9101 12.8992 25.323 13.0757 24.7946 13.4287C24.2663 13.7817 23.8553 14.2524 23.5422 14.8407C23.2291 15.4291 23.0725 16.1154 23.0725 16.8803Z" fill="white"/>
<g id="Group_3">
<path id="Vector_8" d="M5.04891 9.4281H0V24.0972H5.04891V16.4292V14.2328V13.468V9.4281Z" fill="#99DFAF"/>
<path id="Vector_9" d="M14.8922 12.9188C14.7357 12.3305 14.4617 11.7814 14.0507 11.2911C13.5419 10.7028 12.9353 10.2321 12.2308 9.89872C11.5067 9.56534 10.6456 9.40845 9.6476 9.40845H7.57324V13.4483H7.7298C8.04291 13.4483 8.33645 13.4875 8.62999 13.5856C8.90396 13.6837 9.15837 13.8405 9.3932 14.0563C9.6476 14.3112 9.8433 14.6642 9.94114 15.1153C10.039 15.5467 10.0977 16.135 10.0977 16.841V24.0971H15.1466V14.978C15.1466 14.2132 15.0683 13.5268 14.9313 12.9384L14.8922 12.9188Z" fill="white"/>
</g>
</g>
<g id="Group_4">
<path id="Vector_10" d="M98.1017 31.2355L134.99 31.2355C136.017 31.2355 136.849 30.4014 136.849 29.3724C136.849 28.3435 136.017 27.5094 134.99 27.5094L98.1017 27.5094C97.0749 27.5094 96.2426 28.3435 96.2426 29.3724C96.2426 30.4014 97.0749 31.2355 98.1017 31.2355Z" fill="#99DFAF"/>
<path id="Vector_11" d="M88.4344 31.2355H92.8963C93.923 31.2355 94.7554 30.4014 94.7554 29.3724C94.7554 28.3435 93.923 27.5094 92.8963 27.5094H88.4344C87.4077 27.5094 86.5754 28.3435 86.5754 29.3724C86.5754 30.4014 87.4077 31.2355 88.4344 31.2355Z" fill="#99DFAF"/>
<path id="Vector_12" d="M76.9079 29.5685L80.5479 31.6669C80.9393 31.9022 81.4481 31.6081 81.4481 31.157V27.6074C81.4481 27.1367 80.9588 26.8622 80.5479 27.0975L76.9079 29.1959C76.7514 29.2743 76.7514 29.4901 76.9079 29.5881V29.5685Z" fill="#99DFAF"/>
<path id="Vector_13" d="M84.3893 28.6004L85.0535 29.266C85.0535 29.266 85.1227 29.4185 85.0535 29.4879L84.3893 30.1535C83.9604 30.5834 83.2823 30.5695 82.8672 30.1535C82.4382 29.7236 82.452 29.0441 82.8672 28.6281C83.2961 28.1982 83.9742 28.2121 84.3893 28.6281L84.3893 28.6004Z" fill="#99DFAF"/>
</g>
</g>
</g>
</svg>
