<svg width="202" height="240" viewBox="0 0 202 240" fill="none" xmlns="http://www.w3.org/2000/svg">
<g id="c">
<g id="Group">
<path id="Vector" d="M112.731 12.4546C112.731 5.85226 107.479 0.5 101 0.5C94.5209 0.5 89.2686 5.85226 89.2686 12.4546V78.8281C89.2686 85.4305 94.5209 90.7827 101 90.7827C107.479 90.7827 112.731 85.4305 112.731 78.8281V12.4546Z" fill="#02A7E8"/>
<path id="Vector_2" d="M68.3471 79.8897C68.3471 73.2873 63.0948 67.9351 56.6157 67.9351C50.1366 67.9351 44.8843 73.2873 44.8843 79.8897V146.263C44.8843 152.866 50.1366 158.218 56.6157 158.218C63.0948 158.218 68.3471 152.866 68.3471 146.263V79.8897Z" fill="#02A7E8"/>
<path id="Vector_3" d="M157.116 79.8897C157.116 73.2873 151.863 67.9351 145.384 67.9351C138.905 67.9351 133.653 73.2873 133.653 79.8897V146.263C133.653 152.866 138.905 158.218 145.384 158.218C151.863 158.218 157.116 152.866 157.116 146.263V79.8897Z" fill="#02A7E8"/>
<path id="Vector_4" d="M201.5 152.541C201.5 145.938 196.248 140.586 189.769 140.586C183.289 140.586 178.037 145.938 178.037 152.541V196.066C178.037 202.669 183.289 208.021 189.769 208.021C196.248 208.021 201.5 202.669 201.5 196.066V152.541Z" fill="#02A7E8"/>
<path id="Vector_5" d="M23.9629 152.541C23.9629 145.938 18.7105 140.586 12.2314 140.586C5.75234 140.586 0.5 145.938 0.5 152.541V196.066C0.5 202.669 5.75234 208.021 12.2314 208.021C18.7105 208.021 23.9629 202.669 23.9629 196.066V152.541Z" fill="#02A7E8"/>
<path id="Vector_6" d="M101.023 239.5C114.231 239.5 124.939 228.609 124.939 215.175C124.939 201.741 114.231 190.851 101.023 190.851C87.8138 190.851 77.106 201.741 77.106 215.175C77.106 228.609 87.8138 239.5 101.023 239.5Z" fill="#99DFAF"/>
</g>
</g>
</svg>
