<svg width="213" height="248" viewBox="0 0 213 248" fill="none" xmlns="http://www.w3.org/2000/svg">
<g id="Nodefleet logo">
<path id="Vector" d="M114.369 131.814C114.369 127.499 110.846 124 106.5 124C102.154 124 98.6309 127.499 98.6309 131.814V210.14C98.6309 214.455 102.154 217.954 106.5 217.954C110.846 217.954 114.369 214.455 114.369 210.14V131.814Z" fill="#99DFAF"/>
<path id="Vector_2" d="M84.8005 162.297C84.8005 158.004 81.2773 154.523 76.9312 154.523C72.5852 154.523 69.062 158.004 69.062 162.297V240.225C69.062 244.519 72.5852 248 76.9312 248C81.2773 248 84.8005 244.519 84.8005 240.225V162.297Z" fill="#99DFAF"/>
<path id="Vector_3" d="M143.938 162.297C143.938 158.004 140.415 154.523 136.069 154.523C131.723 154.523 128.2 158.004 128.2 162.297V240.225C128.2 244.519 131.723 248 136.069 248C140.415 248 143.938 244.519 143.938 240.225V162.297Z" fill="#99DFAF"/>
<path id="Vector_4" d="M166.391 191.683C163.639 191.683 160.979 190.49 159.145 188.104C156.027 184.067 156.669 178.286 160.704 175.074C181.982 158.283 194.181 133.141 194.181 106.072C194.181 57.7158 154.834 18.3516 106.5 18.3516C58.1658 18.3516 18.9114 57.8076 18.9114 106.164C18.9114 133.233 31.1096 158.374 52.3877 175.166C56.4232 178.286 57.0652 184.158 53.9469 188.196C50.8285 192.233 44.9587 192.875 40.9232 189.756C15.151 169.385 0.384766 139.013 0.384766 106.164C0.384766 77.8108 11.3907 51.201 31.4765 31.106C51.5623 11.011 78.1599 0 106.5 0C134.84 0 161.53 11.011 181.524 31.106C201.61 51.201 212.615 77.8108 212.615 106.164C212.615 138.922 197.849 169.385 172.077 189.664C170.426 191.04 168.408 191.683 166.391 191.683Z" fill="#99DFAF"/>
<path id="Vector_5" d="M118.238 61.3221C124.659 67.7421 124.659 78.2475 118.238 84.6675L106.564 96.3402L94.8907 84.6675C88.4702 78.2475 88.4702 67.7421 94.8907 61.3221C101.311 54.9021 111.818 54.9021 118.238 61.3221Z" fill="#02A7E8"/>
<path id="Vector_6" d="M85.9742 101.289C90.8382 106.152 90.903 114.129 85.9742 119.057L77.0894 127.941L68.2045 119.057C63.3405 114.193 63.2757 106.217 68.2045 101.289C73.0685 96.4253 81.0454 96.3605 85.9742 101.289Z" fill="#02A7E8"/>
<path id="Vector_7" d="M144.854 101.285C149.718 106.149 149.782 114.125 144.854 119.054L135.969 127.938L127.084 119.054C122.22 114.19 122.155 106.214 127.084 101.285C131.948 96.4219 139.925 96.357 144.854 101.285Z" fill="#02A7E8"/>
</g>
</svg>
