<svg width="28" height="22" viewBox="0 0 28 22" fill="none" xmlns="http://www.w3.org/2000/svg">
<path id="Vector" d="M27.5363 2.58824C26.5398 3.04118 25.4657 3.33882 24.3528 3.48118C25.4916 2.79529 26.3716 1.70824 26.7857 0.401176C25.7116 1.04824 24.521 1.50118 23.2657 1.76C22.2434 0.647059 20.8069 0 19.1763 0C16.1351 0 13.6504 2.48471 13.6504 5.55176C13.6504 5.99177 13.7022 6.41882 13.7928 6.82C9.18573 6.58706 5.08338 4.37412 2.35279 1.02235C1.87397 1.83765 1.6022 2.79529 1.6022 3.80471C1.6022 5.73294 2.57279 7.44118 4.07397 8.41177C3.15514 8.41177 2.30103 8.15294 1.55044 7.76471V7.80353C1.55044 10.4953 3.46573 12.7471 6.0022 13.2518C5.18785 13.4746 4.33291 13.5056 3.50456 13.3424C3.85605 14.4456 4.54443 15.4109 5.47293 16.1026C6.40143 16.7944 7.52337 17.1777 8.68103 17.1988C6.71867 18.7523 4.2862 19.5921 1.78338 19.58C1.34338 19.58 0.903379 19.5541 0.463379 19.5024C2.9222 21.0812 5.84691 22 8.97867 22C19.1763 22 24.7799 13.5365 24.7799 6.19882C24.7799 5.95294 24.7798 5.72 24.7669 5.47412C25.854 4.69765 26.7857 3.71412 27.5363 2.58824Z" fill="#2A274B"/>
</svg>
